<svg class="icon" viewBox="0 0 1024 1024" xmlns="http://www.w3.org/2000/svg" width="200" height="200"><defs/><path d="M286.976 816.589c18.483 0 37.12-5.479 53.3-16.64l328.498-226.355c126.823-14.03 225.792-121.805 225.792-252.263 0-139.98-113.868-253.85-253.85-253.85-137.369 0-249.548 109.722-253.644 246.119L170.035 628.736c-24.985 36.3-21.197 85.35 8.807 117.402-12.135 21.145-29.594 61.644-16.692 104.243 12.34 40.96 47.975 71.577 105.882 91.033 27.904 9.37 62.157 14.132 98.867 14.132 29.594 0 60.723-3.072 91.392-9.319 78.387-15.872 145.203-50.227 188.16-96.768a30.694 30.694 0 0 0-1.74-43.417 30.74 30.74 0 0 0-43.418 1.74C523.57 892.006 363.57 908.698 287.642 883.15c-26.01-8.755-58.624-24.525-66.56-50.33-4.096-13.312-1.23-28.006 3.481-40.294 17.613 15.872 39.936 24.064 62.413 24.064zm353.792-687.667c106.086 0 192.41 86.323 192.41 192.41 0 101.068-78.336 184.114-177.46 191.794h-.102c-2.611.205-5.018.359-7.322.461-2.508.103-5.017.205-7.577.205-3.277 0-6.554-.102-9.78-.256-100.659-5.12-181.657-88.576-182.579-190.413v-.102c0-.563-.05-1.127-.05-1.69.05-106.086 86.374-192.41 192.46-192.41zM220.672 663.603l179.712-260.915c26.675 78.643 90.931 140.083 171.264 162.867.154.051.256.103.41.154L305.459 749.414a32.46 32.46 0 0 1-41.728-4.044l-39.577-40.55c-10.752-11.162-12.237-28.468-3.482-41.217z" fill="#535353"/><path d="M639.283 463.462c3.482 1.28 7.015 1.844 10.496 1.844 12.544 0 24.32-7.783 28.877-20.276a30.74 30.74 0 0 0-18.38-39.372c-78.542-28.519-100.762-96.615-101.786-99.892a30.72 30.72 0 0 0-38.144-20.53 30.653 30.653 0 0 0-20.685 38.194c1.126 4.096 30.925 100.557 139.622 140.032zM396.595 602.317c18.125 0 32.82-14.695 32.82-32.768s-14.695-32.768-32.82-32.768-32.768 14.694-32.768 32.768 14.643 32.768 32.768 32.768z" fill="#535353"/></svg>