<svg class="icon" viewBox="0 0 1024 1024" xmlns="http://www.w3.org/2000/svg" width="200" height="200"><defs/><path d="M767.232 919.86h-66.355c-61.235 0-111.002-49.818-111.002-111.002v-286.26c0-16.947 13.773-30.72 30.72-30.72h226.919c16.947 0 30.72 13.773 30.72 30.72v286.26c0 61.235-49.767 111.001-111.002 111.001zM651.315 553.317v255.54c0 27.34 22.221 49.561 49.562 49.561h66.355c27.34 0 49.562-22.22 49.562-49.561v-255.54H651.315z" fill="#535353"/><path d="M735.18 538.06c-16.946 0-30.72-13.772-30.72-30.72V129.639c0-16.947 13.774-30.72 30.72-30.72s30.72 13.773 30.72 30.72v377.703c0 16.947-13.72 30.72-30.72 30.72zM345.294 925.134c-1.536 0-3.021 0-4.557-.103-65.792-2.355-119.347-58.88-119.347-125.952V498.432c-63.232-41.78-100.813-111.411-100.813-187.443 0-90.01 53.453-171.06 136.192-206.541 9.472-4.045 20.378-3.072 29.03 2.611s13.824 15.309 13.824 25.651v131.892h91.239V132.659a30.642 30.642 0 0 1 13.824-25.651 30.812 30.812 0 0 1 29.03-2.611 224.476 224.476 0 0 1 136.192 206.54c0 76.033-37.58 145.665-100.813 187.444V801.28c0 33.894-13.465 65.536-37.836 89.088-23.348 22.528-53.71 34.765-85.965 34.765zm-107.11-737.434a162.99 162.99 0 0 0-56.167 123.239c0 56.678 28.774 108.441 76.902 138.547 14.95 9.37 23.91 25.446 23.91 43.059v306.534c0 34.407 26.932 63.386 60.058 64.564 17.152.46 33.332-5.581 45.62-17.46a61.9 61.9 0 0 0 19.046-44.902V492.544c0-17.613 8.96-33.69 23.91-43.06 48.18-30.054 76.903-81.868 76.903-138.546 0-48.128-21.043-92.775-56.167-123.239V295.27c0 16.948-13.772 30.72-30.72 30.72H268.902c-16.947 0-30.72-13.772-30.72-30.72V187.7z" fill="#535353"/></svg>