<svg class="icon" viewBox="0 0 1024 1024" xmlns="http://www.w3.org/2000/svg" width="200" height="200"><defs/><path d="M731.494 937.011h-431.77c-67.225 0-121.855-54.681-121.855-121.856v-616.14c0-67.226 54.681-121.857 121.856-121.857h431.77c67.225 0 121.907 54.682 121.907 121.856v616.141c0 67.175-54.682 121.856-121.908 121.856zm-431.77-798.464c-33.33 0-60.415 27.136-60.415 60.416v616.141c0 33.331 27.136 60.416 60.416 60.416h431.77c33.33 0 60.467-27.136 60.467-60.416v-616.09c0-33.33-27.136-60.416-60.468-60.416h-431.77z" fill="#535353"/><path d="M670.566 751.411H360.704c-39.987 0-72.55-32.563-72.55-72.55V240.589c0-39.987 32.563-72.55 72.55-72.55h309.862c39.988 0 72.55 32.563 72.55 72.55V678.86c0 39.987-32.562 72.55-72.55 72.55zM360.704 229.478a11.1 11.1 0 0 0-11.11 11.11v438.273a11.1 11.1 0 0 0 11.11 11.11h309.862a11.1 11.1 0 0 0 11.11-11.11V240.589a11.1 11.1 0 0 0-11.11-11.11H360.704zM471.45 817.869a44.186 42.086 0 1 0 88.37 0 44.186 42.086 0 1 0-88.37 0z" fill="#535353"/></svg>