<svg class="icon" viewBox="0 0 1024 1024" xmlns="http://www.w3.org/2000/svg" width="200" height="200"><defs/><path d="M571.802 440.525l-112.845-65.178c-22.989-13.26-50.483-13.26-73.523 0-22.99 13.261-36.762 37.069-36.762 63.642v130.355c0 26.573 13.722 50.38 36.762 63.642 11.52 6.656 24.115 9.984 36.761 9.984s25.242-3.328 36.762-9.984l112.845-65.178c22.988-13.26 36.761-37.069 36.761-63.642 0-26.572-13.721-50.38-36.761-63.641zm-30.72 74.086L428.237 579.79c-5.223 3.02-9.83 1.28-12.083 0s-6.042-4.403-6.042-10.445V438.989c0-6.042 3.789-9.165 6.042-10.445 1.33-.768 3.481-1.69 6.041-1.69 1.792 0 3.84.461 5.99 1.69l112.845 65.178c5.223 3.02 6.042 7.833 6.042 10.444.051 2.612-.717 7.424-5.99 10.445z" fill="#535353"/><path d="M920.013 287.283c-25.344-14.643-55.603-14.643-80.947 0l-28.16 16.23v-27.545c0-62.26-50.637-112.896-112.896-112.896H191.386c-62.26 0-112.896 50.637-112.896 112.896v456.397c0 62.259 50.636 112.896 112.896 112.896H698.06c62.259 0 112.896-50.637 112.896-112.896v-27.546l28.16 16.23c12.646 7.322 26.573 10.957 40.448 10.957s27.801-3.635 40.448-10.956c25.344-14.644 40.448-40.807 40.448-70.093V357.376c.051-29.286-15.104-55.5-40.448-70.093zM749.517 732.365c0 28.365-23.091 51.456-51.456 51.456H191.386c-28.365 0-51.456-23.091-51.456-51.456V275.968c0-28.365 23.09-51.456 51.456-51.456H698.06c28.365 0 51.456 23.091 51.456 51.456v456.397zm149.555-81.357c0 10.138-6.81 15.206-9.728 16.896-2.918 1.69-10.7 5.069-19.507 0l-58.88-33.997v-259.43l58.88-33.997c8.806-5.069 16.589-1.69 19.507 0 2.918 1.69 9.728 6.707 9.728 16.896v293.632z" fill="#535353"/><path d="M244.838 246.323c-42.035 0-76.236 34.202-76.236 76.237s34.201 76.237 76.236 76.237 76.237-34.202 76.237-76.237-34.201-76.237-76.237-76.237zm0 91.034c-8.192 0-14.796-6.656-14.796-14.797 0-8.192 6.656-14.797 14.796-14.797s14.797 6.656 14.797 14.797-6.656 14.797-14.797 14.797z" fill="#535353"/></svg>