<svg class="icon" viewBox="0 0 1024 1024" xmlns="http://www.w3.org/2000/svg" width="200" height="200"><defs/><path d="M447.334 659.712a30.792 30.792 0 0 0-32.921-28.365c-16.896 1.28-29.594 16.026-28.365 32.922l7.834 104.397a30.75 30.75 0 0 0 30.617 28.416c.768 0 1.536 0 2.355-.103 16.896-1.28 29.594-16.025 28.365-32.921l-7.885-104.346zm162.253-28.314c-16.793-1.28-31.641 11.418-32.921 28.365l-7.834 104.397c-1.28 16.896 11.418 31.642 28.365 32.922.768.05 1.536.102 2.355.102 15.923 0 29.389-12.288 30.618-28.416l7.833-104.397a30.822 30.822 0 0 0-28.416-32.973z" fill="#535353"/><path d="M930.202 435.302c0-96.41-78.439-174.899-174.9-174.899h-1.945C707.789 169.37 615.27 111.667 512.205 111.667S316.62 169.37 271.053 260.403h-4.25c-96.41 0-174.899 78.439-174.899 174.9 0 68.198 39.22 127.334 96.307 156.16l27.239 219.545c6.81 54.682 55.45 95.949 113.152 95.949h359.372c56.064 0 104.55-39.885 112.743-92.826l34.662-223.437c56.218-29.03 94.823-87.756 94.823-155.392zm-159.95 174.285l-30.258 195.175c-3.636 23.244-25.959 40.806-52.02 40.806H328.602c-26.778 0-49.204-18.074-52.224-42.086l-24.064-193.844c1.228.103 2.406.154 3.635.205l2.56.154c2.765.102 5.478.205 8.243.205h488.55c2.765 0 5.581-.103 8.346-.205l2.611-.154c1.331-.102 2.663-.153 3.994-.256zm25.652-68.352c-2.97 1.127-5.94 2.15-8.96 3.021l-1.075.307a94.113 94.113 0 0 1-9.114 2.15c-.41.103-.819.154-1.229.205-3.072.564-6.195 1.024-9.318 1.28-.358.052-.717.052-1.075.103-3.277.256-6.503.46-9.83.46h-488.5c-3.072 0-6.144-.153-9.216-.409-.46-.051-.973-.051-1.433-.102-2.868-.256-5.684-.666-8.5-1.127-.614-.102-1.228-.205-1.894-.358a104.481 104.481 0 0 1-8.14-1.843c-.615-.154-1.23-.359-1.895-.512-2.663-.768-5.325-1.588-7.987-2.56-43.367-15.975-74.394-57.652-74.394-106.496 0-62.567 50.893-113.46 113.46-113.46h24.012a30.634 30.634 0 0 0 28.416-19.097c32.205-78.746 107.93-129.639 192.973-129.639s160.768 50.893 192.973 129.639a30.684 30.684 0 0 0 28.416 19.097h21.76c62.566 0 113.459 50.893 113.459 113.46-.051 48.23-30.362 89.497-72.909 105.881z" fill="#535353"/><path d="M450.15 247.706c-2.764 1.28-67.993 31.948-92.57 103.219a30.73 30.73 0 0 0 29.031 40.755c12.749 0 24.627-7.987 29.03-20.685 15.77-45.619 59.29-67.02 60.314-67.533a30.679 30.679 0 0 0 14.9-40.652c-7.015-15.412-25.293-22.17-40.705-15.104z" fill="#535353"/></svg>