<svg class="icon" viewBox="0 0 1024 1024" xmlns="http://www.w3.org/2000/svg" width="200" height="200"><defs/><path d="M535.86 297.062c-3.482-1.075-85.556-25.241-154.42 12.288-37.94 20.685-64 55.245-77.517 102.605-4.659 16.333 4.813 33.331 21.146 37.94a30.75 30.75 0 0 0 37.99-21.146c8.909-31.283 24.474-52.634 47.565-65.331 45.875-25.242 106.752-7.783 107.52-7.578 16.23 4.864 33.28-4.3 38.195-20.531 4.967-16.18-4.25-33.331-20.48-38.247z" fill="#535353"/><path d="M892.62 374.067a30.73 30.73 0 1 0-10.751-60.518L809.42 326.45l75.93-67.379c12.697-11.264 13.875-30.669 2.61-43.366-11.263-12.698-30.668-13.824-43.366-2.612l-85.35 75.674 28.057-78.848a30.705 30.705 0 0 0-57.856-20.582L704.205 260.3c-53.043-47.411-104.5-79.975-155.75-98.663-102.913-37.53-204.237-19.2-301.261 54.528-.359.256-.717.564-1.024.82C132.352 311.5 131.89 516.045 159.386 630.528c10.393 43.366 1.228 81.613-7.68 118.63-9.421 39.066-19.098 79.514-3.175 120.832 4.762 12.237 16.794 20.02 29.85 19.61 13.107-.512 24.473-9.318 28.211-21.914 1.024-3.481 5.478-7.475 12.134-10.956 29.338-15.156 98.919-18.637 182.375 9.676 71.936 24.372 138.342 36.66 198.041 36.66 15.002 0 29.645-.768 43.828-2.356 111.82-12.288 194.867-71.27 246.886-175.308 60.57-121.19-3.482-250.368-69.222-338.586l71.987-12.749zM834.868 698.01C763.75 840.192 624.435 877.312 420.813 808.243c-48.384-16.384-96.205-24.678-138.189-24.678-29.747 0-56.576 4.147-78.54 12.544 1.842-10.138 4.454-20.941 7.218-32.563 9.626-39.936 21.556-89.6 7.68-147.303-24.627-102.605-20.428-279.245 65.792-351.488 141.364-107.059 283.341-72.038 446.72 110.285 63.488 70.86 161.332 207.002 103.373 322.97z" fill="#535353"/></svg>