<svg class="icon" viewBox="0 0 1024 1024" xmlns="http://www.w3.org/2000/svg" width="200" height="200"><defs/><path d="M710.605 327.526h-163.43v-43.161h68.966c47.77 0 86.579-38.861 86.579-86.63v-48.999c0-47.77-38.86-86.63-86.58-86.63H409.294c-42.087 0-77.21 30.208-84.992 70.041-43.11-.563-134.349 9.165-173.159 96.563-6.912 15.514.103 33.639 15.616 40.55 4.045 1.793 8.295 2.663 12.442 2.663a30.774 30.774 0 0 0 28.109-18.278c24.217-54.477 85.709-60.57 115.405-60.16v4.25c0 47.769 38.86 86.63 86.63 86.63h76.493v43.161H322.355c-87.245 0-158.157 70.964-158.157 158.157V808.55c0 87.245 70.964 158.157 158.157 158.157h388.25c87.245 0 158.157-70.963 158.157-158.157V485.683c0-87.193-70.964-158.157-158.157-158.157zm-326.503-129.74v-48.999a25.242 25.242 0 0 1 25.19-25.19h206.849c13.875 0 25.139 11.315 25.139 25.19v48.999c0 13.875-11.264 25.19-25.14 25.19H409.294c-13.875-.051-25.19-11.315-25.19-25.19zm-61.747 191.18h388.25c53.35 0 96.717 43.418 96.717 96.717v169.319c-41.677-36.404-88.474-56.576-139.725-60.11-86.63-5.99-154.931 37.991-172.032 53.863l-3.175 2.97c-19.968 18.688-42.598 39.833-118.425 39.833-79.667 0-139.213-43.98-140.237-44.748-2.56-1.946-5.274-3.38-8.14-4.455V485.683c0-53.35 43.417-96.717 96.767-96.717zm388.25 516.352h-388.25c-53.35 0-96.717-43.417-96.717-96.716v-94.618c30.823 16.794 83.815 39.066 148.378 39.066 100.096 0 136.397-33.946 160.41-56.423l2.97-2.765c7.628-7.065 60.21-42.188 126.054-37.632 50.124 3.43 95.488 29.594 134.86 77.67 2.612 3.175 5.684 5.684 9.063 7.476v67.174c-.051 53.35-43.418 96.768-96.768 96.768z" fill="#535353"/></svg>