<svg class="icon" viewBox="0 0 1024 1024" xmlns="http://www.w3.org/2000/svg" width="200" height="200"><defs/><path d="M866.1 380.928c0-51.917-42.24-94.106-94.106-94.106h-16.845a71.98 71.98 0 0 0 1.894-16.332c0-42.906-37.58-77.773-83.763-77.773h-26.112a113.672 113.672 0 0 0 1.946-20.89c0-66.662-59.392-120.934-132.404-120.934s-132.403 54.22-132.403 120.934c0 7.066.666 14.08 1.946 20.89h-32.768c-46.183 0-83.763 34.918-83.763 77.773 0 5.632.665 11.059 1.894 16.332h-16.845c-51.917 0-94.105 42.24-94.105 94.106 0 37.683 22.272 70.144 54.323 85.146a125.389 125.389 0 0 0-23.808 73.574v306.074c0 69.53 56.576 126.054 126.054 126.054h391.578c69.53 0 126.054-56.576 126.054-126.054V539.648c0-27.34-8.806-52.685-23.654-73.37 32.358-14.848 54.886-47.462 54.886-85.35zM331.212 270.49c0-8.858 10.24-16.333 22.323-16.333h79.872a30.684 30.684 0 0 0 24.115-49.715c-7.68-9.728-11.776-21.044-11.776-32.615 0-32.819 31.847-59.494 70.963-59.494s70.964 26.675 70.964 59.494c0 11.571-4.045 22.835-11.776 32.615a30.684 30.684 0 0 0 24.115 49.715h73.267c12.083 0 22.323 7.475 22.323 16.333s-10.24 16.332-22.323 16.332H353.536c-12.134 0-22.323-7.475-22.323-16.332zm-76.39 77.772h517.17c18.023 0 32.666 14.644 32.666 32.666s-14.643 32.666-32.665 32.666H254.822c-18.022 0-32.665-14.644-32.665-32.666s14.643-32.666 32.665-32.666zm518.655 497.51c0 35.636-28.979 64.615-64.614 64.615H317.286c-35.635 0-64.614-28.979-64.614-64.614v-12.954h156.877c16.947 0 30.72-13.773 30.72-30.72s-13.773-30.72-30.72-30.72H252.672v-53.35h156.877c16.947 0 30.72-13.773 30.72-30.72s-13.773-30.72-30.72-30.72H252.672v-53.402h215.757c16.947 0 30.72-13.773 30.72-30.72s-13.773-30.72-30.72-30.72H252.672V539.7c0-35.635 28.98-64.614 64.614-64.614h391.578c35.635 0 64.614 28.979 64.614 64.614v306.074z" fill="#535353"/></svg>