<svg class="icon" viewBox="0 0 1024 1024" xmlns="http://www.w3.org/2000/svg" width="200" height="200"><defs/><path d="M405.76 384.256c1.536-208.23-81.1-251.494-131.072-277.709l-.87-.46a30.838 30.838 0 0 0-28.519 0c-40.806 21.401-67.072 71.475-78.08 148.838-.102.563-.153 1.177-.205 1.74-3.993 47.719-.41 100.404 4.148 140.954-29.133 22.477-47.924 57.703-47.924 97.28v296.55c0 67.738 55.143 122.88 122.88 122.88h106.24c67.738 0 122.88-55.142 122.88-122.88V494.9c0-48.589-28.364-90.726-69.478-110.643zm-164.3-12.237c-3.738 0-7.425.154-11.111.512-3.175-33.945-5.12-73.779-2.15-109.824 6.297-43.571 18.329-76.237 33.996-93.03 38.349 22.272 81.152 62.105 82.176 202.342H241.46zm172.338 419.482c0 33.894-27.545 61.44-61.44 61.44H246.17c-33.895 0-61.44-27.546-61.44-61.44V494.899c0-33.894 27.545-61.44 61.44-61.44h106.24c33.894 0 61.44 27.546 61.44 61.44v296.602z" fill="#535353"/><path d="M262.912 485.837c-16.947 0-30.72 13.773-30.72 30.72V770.61c0 16.947 13.773 30.72 30.72 30.72s30.72-13.773 30.72-30.72V516.557c0-16.999-13.773-30.72-30.72-30.72zm546.202-65.587L925.03 213.094c7.322-13.107 4.096-29.593-7.628-38.963-3.584-2.867-89.088-70.093-229.94-70.093-140.697 0-227.174 66.714-230.81 69.53a30.694 30.694 0 0 0-7.935 38.963l114.125 207.514c2.406 4.352 5.785 7.885 9.728 10.598l-7.066 70.656a31.561 31.561 0 0 0-.717 6.656v.512l-32.87 327.987c-2.1 20.89 4.761 41.83 18.893 57.396 14.08 15.564 34.201 24.524 55.193 24.524h149.043c20.839 0 40.91-8.806 54.99-24.217 14.08-15.411 21.094-36.147 19.2-56.935l-36.353-403.097a31.18 31.18 0 0 0 16.23-13.875zm-292.71-212.173c29.951-16.691 89.548-42.599 171.058-42.599 80.538 0 139.981 26.061 169.83 42.804l-92.057 164.505a29.995 29.995 0 0 0-6.093-.614h-21.657l10.496-45.466a30.776 30.776 0 0 0-23.04-36.864 30.776 30.776 0 0 0-36.864 23.04l-6.656 28.928-7.475-30.105a30.705 30.705 0 0 0-37.223-22.426c-16.486 4.096-26.521 20.736-22.425 37.222l11.315 45.722h-19.047l-90.163-164.147zm218.623 269.158h-105.37l4.148-41.267h97.485l3.737 41.267zm29.645 375.399c-1.434 1.587-4.608 4.25-9.626 4.25H606.003c-5.017 0-8.192-2.663-9.677-4.302-1.433-1.587-3.788-5.017-3.328-10.035l30.464-303.872h117.044l27.443 303.975c.512 5.017-1.843 8.396-3.277 9.984z" fill="#535353"/></svg>