<svg class="icon" viewBox="0 0 1024 1024" xmlns="http://www.w3.org/2000/svg" width="200" height="200"><defs/><path d="M917.3 659.302C905.317 468.07 760.473 312.27 574.207 283.546c13.312-14.848 21.504-34.356 21.504-55.808 0-46.132-37.53-83.661-83.66-83.661s-83.662 37.53-83.662 83.66c0 21.453 8.192 40.96 21.504 55.809-186.316 28.723-331.161 184.524-343.142 375.756-39.782 13.159-68.608 50.637-68.608 94.772 0 55.04 44.8 99.84 99.84 99.84h748.032c55.091 0 99.891-44.8 99.891-99.84 0-44.135-28.825-81.613-68.608-94.772zM512.05 205.517c12.237 0 22.221 9.984 22.221 22.22 0 12.237-9.984 22.221-22.22 22.221-12.238 0-22.222-9.984-22.222-22.22 0-12.237 9.984-22.221 22.221-22.221zm0 134.707c179.712 0 327.783 138.24 343.399 314.01H168.653c15.616-175.77 163.635-314.01 343.398-314.01zm374.016 452.3H138.035c-21.197 0-38.4-17.254-38.4-38.4s17.255-38.4 38.4-38.4h748.032c21.197 0 38.451 17.255 38.451 38.4s-17.305 38.4-38.45 38.4z" fill="#535353"/><path d="M608.82 413.696c-15.72-6.349-33.64 1.178-39.988 16.947-6.4 15.719 1.229 33.639 16.947 39.987.82.359 84.378 34.919 110.797 107.52a30.74 30.74 0 0 0 39.373 18.381 30.761 30.761 0 0 0 18.38-39.373c-35.737-97.996-141.055-141.619-145.51-143.462z" fill="#535353"/></svg>