<svg class="icon" viewBox="0 0 1024 1024" xmlns="http://www.w3.org/2000/svg" width="200" height="200"><defs/><path d="M619.418 515.226c31.795-30.567 65.843-62.31 98.97-93.184 50.84-47.412 98.866-92.212 138.034-131.79 10.957-11.11 11.879-28.671 2.1-40.857C777.728 148.736 657.51 91.034 528.589 91.034c-233.165 0-422.861 189.696-422.861 422.86s189.696 422.861 422.86 422.861c117.658 0 230.964-49.613 310.836-136.14 10.752-11.623 10.854-29.543.307-41.319-62.157-69.478-146.585-162.918-220.313-244.07zM528.64 875.264c-199.27 0-361.42-162.15-361.42-361.42s162.15-361.422 361.42-361.422c100.966 0 195.738 41.421 263.987 114.586-34.304 33.69-74.291 70.963-116.173 110.08-40.908 38.144-83.148 77.568-121.292 114.79a30.7 30.7 0 0 0-1.23 42.65c70.81 77.824 155.034 170.957 220.673 244.07-66.56 61.748-154.727 96.666-245.965 96.666z" fill="#535353"/><path d="M441.446 356.608H401.51v-39.936c0-16.947-13.772-30.72-30.72-30.72s-30.72 13.773-30.72 30.72v39.936h-39.936c-16.947 0-30.72 13.773-30.72 30.72s13.773 30.72 30.72 30.72h39.936v39.936c0 16.947 13.773 30.72 30.72 30.72s30.72-13.773 30.72-30.72v-39.936h39.936c16.948 0 30.72-13.773 30.72-30.72s-13.772-30.72-30.72-30.72zm379.956 73.523c-52.43 0-95.13 42.65-95.13 95.13 0 52.429 42.65 95.13 95.13 95.13 52.428 0 95.13-42.65 95.13-95.13 0-52.429-42.702-95.13-95.13-95.13zm0 128.82c-18.586 0-33.69-15.105-33.69-33.69s15.104-33.69 33.69-33.69 33.69 15.104 33.69 33.69-15.105 33.69-33.69 33.69z" fill="#535353"/></svg>