<svg class="icon" viewBox="0 0 1024 1024" xmlns="http://www.w3.org/2000/svg" width="200" height="200"><defs/><path d="M506.88 80.384C268.902 80.384 75.264 274.022 75.264 512S268.902 943.616 506.88 943.616 938.496 749.978 938.496 512 744.858 80.384 506.88 80.384zm0 801.792c-204.134 0-370.176-166.042-370.176-370.176S302.797 141.824 506.88 141.824 877.056 307.866 877.056 512 711.014 882.176 506.88 882.176z" fill="#535353"/><path d="M706.816 323.942c-74.906-10.752-133.58 3.482-174.438 42.343-13.261 12.595-23.45 26.777-31.284 41.37-58.47-94.925-149.196-85.505-192.46-81.05-13.824 1.433-24.986 11.98-27.188 25.753-9.216 57.908 5.325 112.692 40.858 154.368 35.482 41.575 89.6 66.304 153.805 70.656v188.16c0 16.948 13.773 30.72 30.72 30.72s30.72-13.772 30.72-30.72V575.95c62.515-6.861 113.152-30.003 147.917-67.994 36.556-39.885 52.992-93.952 47.513-156.262a30.551 30.551 0 0 0-26.163-27.75zM475.75 515.738c-45.875-3.892-82.483-20.634-106.65-48.948-18.943-22.17-28.825-50.432-28.825-81.203 48.589-2.457 104.96 8.909 134.912 118.17.205.819.512 1.638.768 2.457a213.41 213.41 0 0 0-.205 9.524zm164.506-49.357c-23.45 25.549-58.624 41.779-103.014 47.667.307-22.682 4.966-72.55 37.734-103.475 20.224-19.047 49.05-28.672 85.965-28.672 3.789 0 7.629.102 11.571.307-1.28 33.946-12.134 62.208-32.256 84.173z" fill="#535353"/></svg>