<svg class="icon" viewBox="0 0 1024 1024" xmlns="http://www.w3.org/2000/svg" width="200" height="200"><defs/><path d="M738.714 131.635a30.792 30.792 0 0 0-28.775-19.968H305.101c-13.107 0-24.73 8.295-29.03 20.685-3.175 9.062-76.852 224.205-57.14 376.269 9.83 75.571 46.95 135.68 107.469 173.875 49.766 31.386 105.523 42.547 150.374 45.62v118.63H353.331c-16.947 0-30.72 13.772-30.72 30.72s13.773 30.72 30.72 30.72h304.333c16.947 0 30.72-13.773 30.72-30.72s-13.773-30.72-30.72-30.72H538.266V728.064c151.244-9.472 246.579-85.555 263.321-212.07 20.89-158.208-59.443-375.194-62.873-384.359zm-411.239 41.523H688.18c7.885 23.45 21.043 65.434 32.615 114.944-2.15 2.868-3.84 6.093-4.916 9.677-11.315 38.144-35.328 64.87-69.376 77.21-42.188 15.309-95.539 6.912-139.11-22.016-75.52-50.074-170.547-25.344-221.082-5.888 11.52-73.114 30.976-141.056 41.165-173.927zM740.66 507.955C723.2 639.95 603.136 667.648 505.498 667.648c-61.338 0-206.08-16.282-225.639-166.912-3.328-25.754-3.533-53.965-1.69-82.842.717-.307 1.434-.614 2.1-.972 1.177-.615 118.118-62.413 193.126-12.698 39.68 26.266 84.531 39.936 127.949 39.936 22.733 0 45.107-3.738 66.1-11.366 28.108-10.19 52.07-27.034 70.86-49.152 5.53 42.7 7.424 85.913 2.355 124.313z" fill="#535353"/></svg>