<svg class="icon" viewBox="0 0 1024 1024" xmlns="http://www.w3.org/2000/svg" width="200" height="200"><defs/><path d="M920.371 844.134h-43.776V479.488c0-46.438-37.785-84.224-84.224-84.224h-87.705V207.002c0-46.439-37.786-84.224-84.224-84.224H242.278c-46.438 0-84.224 37.785-84.224 84.224v637.081h-42.496c-16.947 0-30.72 13.773-30.72 30.72s13.773 30.72 30.72 30.72h804.813c16.947 0 30.72-13.773 30.72-30.72s-13.773-30.669-30.72-30.669zm-700.877 0V207.002c0-12.596 10.24-22.784 22.784-22.784H620.34c12.595 0 22.784 10.24 22.784 22.784v637.081H219.494zm485.376 0v-387.43h87.45c12.595 0 22.784 10.24 22.784 22.784v364.595H704.87z" fill="#535353"/><path d="M494.336 307.405H348.621c-16.947 0-30.72 13.773-30.72 30.72v111.053c0 16.947 13.773 30.72 30.72 30.72h145.664c16.947 0 30.72-13.773 30.72-30.72V338.125c.051-16.999-13.722-30.72-30.669-30.72zm-30.72 111.001h-84.275v-49.612h84.224v49.612zm30.72 130.407H348.621c-16.947 0-30.72 13.773-30.72 30.72v111.053c0 16.947 13.773 30.72 30.72 30.72h145.664c16.947 0 30.72-13.773 30.72-30.72V579.533c.051-16.947-13.722-30.72-30.669-30.72zm-30.72 111.053h-84.275v-49.613h84.224v49.613z" fill="#535353"/></svg>