<svg class="icon" viewBox="0 0 1024 1024" xmlns="http://www.w3.org/2000/svg" width="200" height="200"><defs/><path d="M509.542 956.62c-244.633 0-443.699-199.014-443.699-443.698s199.066-443.7 443.7-443.7 443.699 199.066 443.699 443.7-199.066 443.699-443.7 443.699zm0-825.906c-210.79 0-382.259 171.468-382.259 382.259 0 210.79 171.469 382.259 382.26 382.259s382.259-171.469 382.259-382.26c0-210.79-171.47-382.258-382.26-382.258z" fill="#535353"/><path d="M509.542 705.946c-16.384 0-32.819-6.247-45.312-18.74L335.258 558.234c-24.986-24.986-24.986-65.639 0-90.573L464.23 338.688c24.986-24.986 65.588-24.986 90.573 0l128.973 128.973c24.986 24.985 24.986 65.587 0 90.573L554.803 687.206a63.636 63.636 0 0 1-45.26 18.74zm0-324.557c-.665 0-1.33.256-1.843.768L378.726 511.078a2.596 2.596 0 0 0 0 3.687l128.922 128.973a2.596 2.596 0 0 0 3.686 0l128.973-128.973a2.596 2.596 0 0 0 0-3.687L511.386 382.157a2.598 2.598 0 0 0-1.844-.768z" fill="#535353"/></svg>