<svg class="icon" viewBox="0 0 1024 1024" xmlns="http://www.w3.org/2000/svg" width="200" height="200"><defs/><path d="M848.691 238.746c-11.264 0-22.016 2.099-32 5.785-4.71-53.299-49.613-95.283-104.14-95.283-57.652 0-104.602 46.9-104.602 104.602v150.937H421.17V253.85c0-57.652-46.899-104.602-104.601-104.602-54.528 0-99.38 41.984-104.141 95.283-9.984-3.686-20.736-5.785-32-5.785-51.354 0-93.133 41.779-93.133 93.132v340.43c0 51.353 41.78 93.132 93.133 93.132 11.264 0 22.016-2.1 32-5.786 4.71 53.35 49.613 95.284 104.14 95.284 57.652 0 104.602-46.9 104.602-104.602V599.398H607.95v150.938c0 57.651 46.899 104.602 104.601 104.602 54.528 0 99.38-41.984 104.141-95.284 9.984 3.687 20.736 5.786 32 5.786 51.354 0 93.133-41.78 93.133-93.133V331.93c0-51.405-41.78-93.184-93.133-93.184zM180.43 704c-17.46 0-31.693-14.234-31.693-31.693V331.93c0-17.46 14.234-31.693 31.693-31.693 16.486 0 30.054 12.646 31.539 28.723v346.317A31.672 31.672 0 0 1 180.428 704zm179.302 46.387c0 23.808-19.353 43.162-43.161 43.162s-43.162-19.354-43.162-43.162v-75.11c.051-.973.154-1.946.154-2.97V331.93c0-1.024-.103-1.946-.154-2.97v-75.11c0-23.808 19.354-43.162 43.162-43.162s43.161 19.354 43.161 43.162v496.537zM607.693 538.01H421.427v-71.783h186.215v71.783zM712.55 793.549c-23.808 0-43.161-19.354-43.161-43.162V253.85c0-23.808 19.353-43.162 43.161-43.162s43.162 19.354 43.162 43.162v75.212c-.051.973-.154 1.895-.154 2.868v340.428c0 .973.103 1.895.154 2.868v75.161c0 23.757-19.354 43.162-43.162 43.162zm167.834-121.242c0 17.46-14.234 31.693-31.693 31.693-16.486 0-30.105-12.698-31.539-28.826V329.062a31.724 31.724 0 0 1 31.54-28.825c17.458 0 31.692 14.233 31.692 31.693v340.377z" fill="#535353"/></svg>