<svg class="icon" viewBox="0 0 1024 1024" xmlns="http://www.w3.org/2000/svg" width="200" height="200"><defs/><path d="M818.176 214.835H762.01v-34.662c0-48.743-39.63-88.371-88.372-88.371H221.952c-48.742 0-88.371 39.628-88.371 88.37v128.564c0 48.742 39.629 88.371 88.371 88.371h451.635c48.743 0 88.371-39.629 88.371-88.371v-32.46h56.167a5.266 5.266 0 0 1 5.273 5.273v175.257a5.266 5.266 0 0 1-5.273 5.274h-280.73c-30.72 0-55.705 24.986-55.705 55.706v80.179h-19.2c-32.308 0-58.624 26.317-58.624 58.624v214.886c0 32.307 26.265 58.624 58.624 58.624h101.324c32.308 0 58.624-26.317 58.624-58.624V656.59c0-32.307-26.316-58.624-58.624-58.624H543.13V523.52h275.046c36.762 0 66.714-29.9 66.714-66.714V281.55c0-36.813-29.901-66.714-66.714-66.714zM700.57 308.736c0 14.848-12.084 26.931-26.932 26.931H221.952c-14.848 0-26.931-12.083-26.931-26.931V180.122c0-14.848 12.083-26.932 26.931-26.932h451.635c14.848 0 26.931 12.084 26.931 26.932v128.614zM561.05 868.608h-95.693V659.354h95.693v209.254z" fill="#535353"/></svg>