<svg class="icon" viewBox="0 0 1024 1024" xmlns="http://www.w3.org/2000/svg" width="200" height="200"><defs/><path d="M951.04 480.307c0-71.117-55.398-129.536-125.286-134.502C793.139 201.01 665.19 97.69 514.867 97.69c-150.067 0-278.374 103.475-310.937 248.268-68.916 5.94-123.239 63.898-123.239 134.35 0 62.975 43.418 116.018 101.888 130.764v183.654c0 38.4 26.727 70.554 62.515 79.156v12.544c0 16.947 13.773 30.72 30.72 30.72s30.72-13.773 30.72-30.72v-10.24h418.048v10.24c0 16.947 13.773 30.72 30.72 30.72s30.72-13.773 30.72-30.72v-12.852c35.226-8.96 61.44-40.908 61.44-78.899V611.43c59.29-14.08 103.578-67.532 103.578-131.123zM514.816 159.13c120.013 0 222.362 81.561 250.06 196.454-48.998 20.224-83.609 68.506-83.609 124.723 0 1.741.051 3.482.154 5.223a29.71 29.71 0 0 0-.563 5.683v101.171H349.082v-93.696c.819-5.99 1.28-12.134 1.28-18.38 0-56.935-35.482-105.678-85.453-125.44C292.915 240.485 395.315 159.13 514.816 159.13zM349.082 653.875h331.776v28.98H349.082v-28.98zM142.08 480.307c0-40.499 32.922-73.42 73.42-73.42s73.422 32.921 73.422 73.42c0 1.178-.103 2.355-.154 3.482a29.972 29.972 0 0 0-1.126 8.09v1.843c-6.35 34.099-36.25 60.006-72.141 60.006-40.5 0-73.421-32.922-73.421-73.42zm101.888 131.789c15.77-3.38 30.464-9.574 43.674-17.971v119.398c0 16.947 13.772 30.72 30.72 30.72h393.216c16.947 0 30.72-13.773 30.72-30.72V592.998c13.158 8.653 27.852 15.002 43.673 18.637v182.989c0 11.06-9.011 20.07-20.07 20.07H264.038c-11.059 0-20.07-9.01-20.07-20.07V612.096zm572.211-58.368c-40.499 0-73.42-32.922-73.42-73.42s32.921-73.422 73.42-73.422 73.421 32.922 73.421 73.421-32.973 73.421-73.42 73.421z" fill="#535353"/></svg>