<svg class="icon" viewBox="0 0 1024 1024" xmlns="http://www.w3.org/2000/svg" width="200" height="200"><defs/><path d="M728.269 93.798h-437.76c-50.79 0-92.16 41.319-92.16 92.16v642.253c0 50.79 41.37 92.16 92.16 92.16h437.76c50.79 0 92.16-41.37 92.16-92.16V185.958c0-50.841-41.319-92.16-92.16-92.16zm-437.709 61.44h437.76c16.947 0 30.72 13.773 30.72 30.72v233.37h-499.2v-233.37c0-16.947 13.773-30.72 30.72-30.72zM728.269 858.88h-437.76c-16.947 0-30.72-13.773-30.72-30.72V480.768h499.2v347.443c0 16.896-13.773 30.669-30.72 30.669z" fill="#535353"/><path d="M695.808 351.386c16.947 0 30.72-13.773 30.72-30.72v-64.717c0-16.947-13.773-30.72-30.72-30.72s-30.72 13.773-30.72 30.72v64.665c0 16.999 13.773 30.772 30.72 30.772zm2.1 243.916c-16.948 0-30.72 13.773-30.72 30.72v72.346c0 16.947 13.772 30.72 30.72 30.72s30.72-13.773 30.72-30.72v-72.346c0-16.998-13.774-30.72-30.72-30.72z" fill="#535353"/></svg>