<svg class="icon" viewBox="0 0 1024 1024" xmlns="http://www.w3.org/2000/svg" width="200" height="200"><defs/><path d="M485.12 249.805H294.912c-33.28 0-60.416 27.085-60.416 60.416v85.862c0 33.28 27.085 60.416 60.416 60.416h190.157c33.28 0 60.416-27.085 60.416-60.416v-85.862c0-33.331-27.085-60.416-60.365-60.416zm-1.075 145.254H295.987v-83.814h188.109v83.814z" fill="#535353"/><path d="M897.638 311.347L784.845 194.304a30.674 30.674 0 0 0-43.418-.82 30.674 30.674 0 0 0-.819 43.418L844.8 345.037v413.235c0 18.842-15.36 34.202-34.202 34.202-18.841 0-34.201-15.36-34.201-34.202V482.458c0-45.824-37.274-83.15-83.149-83.15h-36.045V224.155c0-53.607-43.622-97.23-97.229-97.23h-340.48c-53.606 0-97.228 43.623-97.228 97.23v594.79c0 53.606 43.622 97.229 97.228 97.229h340.48c53.607 0 97.23-43.623 97.23-97.229V460.749h36.044c11.98 0 21.709 9.728 21.709 21.709v275.865c0 52.736 42.905 95.642 95.641 95.642 52.736 0 95.642-42.906 95.642-95.642V332.646a30.667 30.667 0 0 0-8.602-21.299zM595.814 818.944c0 19.763-16.076 35.789-35.788 35.789h-340.48c-19.764 0-35.79-16.077-35.79-35.789v-594.79c0-19.764 16.078-35.79 35.79-35.79h340.48c19.763 0 35.788 16.078 35.788 35.79v594.79z" fill="#535353"/></svg>