<svg class="icon" viewBox="0 0 1024 1024" xmlns="http://www.w3.org/2000/svg" width="200" height="200"><defs/><path d="M309.504 658.534c-15.206 0-30.362-3.686-43.98-11.008L113.1 565.453c-16.64-8.96-26.931-26.266-26.88-45.159s10.496-36.096 27.187-44.953l55.654-29.44a50.98 50.98 0 0 1 35.124-4.66l87.296 19.713 106.24-58.317-160.82-129.178a52.89 52.89 0 0 1-19.61-45.773 52.838 52.838 0 0 1 27.034-41.83l71.63-39.885c14.898-8.294 33.023-8.909 48.434-1.638l268.032 126.72c1.69.819 3.636.717 5.274-.154l131.994-72.448c27.904-15.309 60.006-18.637 90.47-9.42 30.464 9.215 55.296 29.849 70.042 58.009 15.001 28.774 17.51 61.491 6.963 92.211s-32.512 55.091-62.003 68.608l-526.95 242.227c-12.238 5.632-25.498 8.448-38.708 8.448zM159.334 520.55l135.27 72.858c8.602 4.66 19.047 4.966 27.956.87l526.9-242.227c14.028-6.451 24.524-18.073 29.542-32.665 5.017-14.644 3.84-30.208-3.328-43.93a55.414 55.414 0 0 0-33.332-27.648c-14.49-4.403-29.798-2.765-43.059 4.506L667.29 324.762a67.446 67.446 0 0 1-61.082 1.843L342.016 201.779l-56.832 31.642 163.123 131.02a50.975 50.975 0 0 1 18.893 44.237 50.883 50.883 0 0 1-26.317 40.295l-123.29 67.686a51.369 51.369 0 0 1-35.84 5.069l-87.398-19.763-35.02 18.585zM862.26 379.955zm50.432 382.464H627.968c-16.947 0-30.72-13.773-30.72-30.72s13.773-30.72 30.72-30.72h284.723c16.947 0 30.72 13.773 30.72 30.72s-13.721 30.72-30.72 30.72zm0 112.691H128.973c-16.947 0-30.72-13.772-30.72-30.72s13.773-30.72 30.72-30.72h783.77c16.947 0 30.72 13.773 30.72 30.72s-13.773 30.72-30.772 30.72z" fill="#535353"/></svg>