<svg class="icon" viewBox="0 0 1024 1024" xmlns="http://www.w3.org/2000/svg" width="200" height="200"><defs/><path d="M883.61 119.962H713.114c-24.116 0-45.005 16.384-52.02 40.806-.153.512-.256.973-.41 1.485L635.7 269.107H457.933c-10.957-88.166-86.323-156.672-177.46-156.672-98.61 0-178.892 80.23-178.892 178.893 0 95.027 74.547 173.005 168.192 178.534l33.945 373.146c2.919 32.307 32.768 56.678 69.325 56.678H724.07c36.608 0 66.407-24.37 69.325-56.678l49.203-540.314a30.925 30.925 0 0 0-7.884-23.5 30.863 30.863 0 0 0-22.682-9.984H698.829l20.531-87.706h164.25c16.947 0 30.72-13.773 30.72-30.72s-13.722-30.822-30.72-30.822zM318.822 330.547h302.541L585.318 484.71H332.851l-14.029-154.163zm-155.801-39.27c0-64.768 52.685-117.453 117.453-117.453 57.19 0 104.908 41.062 115.302 95.283H285.184c-8.653 0-16.845 3.635-22.682 9.984a30.53 30.53 0 0 0-7.884 23.501l9.574 104.909c-57.088-7.885-101.171-56.986-101.171-116.224zm561.152 546.918H373.146c-4.455 0-7.22-1.485-8.295-2.355l-26.368-289.69h232.5l-23.04 98.612a30.75 30.75 0 0 0 29.951 37.734c13.927 0 26.573-9.574 29.901-23.706l26.317-112.588h124.723l-26.368 289.69c-1.126.818-3.891 2.303-8.294 2.303zm54.272-507.648L764.416 484.71H648.448l36.045-154.163h93.952z" fill="#535353"/></svg>