<svg class="icon" viewBox="0 0 1024 1024" xmlns="http://www.w3.org/2000/svg" width="200" height="200"><defs/><path d="M952.934 784.691c-5.785-82.637-24.627-241.869-86.118-379.597C790.272 233.472 667.546 142.797 512 142.797c-155.494 0-278.118 90.726-354.611 262.349C96 542.874 77.107 702.106 71.373 784.742c-1.69 24.372 6.912 48.64 23.552 66.51 16.742 17.92 40.397 28.21 64.921 28.21h704.615c24.525 0 48.179-10.29 64.921-28.21a89.088 89.088 0 0 0 23.552-66.56zm-68.505 24.627a27.162 27.162 0 0 1-19.968 8.704H159.846c-7.68 0-14.745-3.072-19.968-8.704a26.88 26.88 0 0 1-7.219-20.326c5.479-78.592 23.296-229.734 80.845-358.86C280.32 280.268 380.774 204.236 512 204.236c131.328 0 231.834 75.98 298.7 225.894 57.6 129.075 75.418 280.269 80.897 358.861a26.573 26.573 0 0 1-7.168 20.326z" fill="#535353"/><path d="M512.051 335.872c-71.065 0-166.195 33.997-215.654 195.84-27.597 90.42-27.904 179.354-27.904 183.091 0 16.947 13.773 30.72 30.72 30.72h425.779c16.947 0 30.72-13.721 30.72-30.72 0-3.737-.256-92.672-27.904-183.091-49.46-161.843-144.589-195.84-215.757-195.84zm-30.771 64.82v283.391H331.418c5.324-73.728 30.617-256.46 149.862-283.392zm61.44 283.391V400.64c119.5 26.778 144.794 209.664 150.17 283.443H542.72z" fill="#535353"/></svg>