<svg class="icon" viewBox="0 0 1024 1024" xmlns="http://www.w3.org/2000/svg" width="200" height="200"><defs/><path d="M948.02 259.686a30.817 30.817 0 0 0-25.447-13.568H264.755l-15.462-75.264c-5.683-27.596-30.26-47.667-58.42-47.667h-77.977c-16.947 0-30.72 13.773-30.72 30.72s13.773 30.72 30.72 30.72h76.544l93.133 452.71c7.885 38.35 42.035 66.202 81.203 66.202h445.44c16.947 0 30.72-13.773 30.72-30.72s-13.773-30.72-30.72-30.72h-445.44c-10.138 0-18.995-7.219-20.992-17.152l-16.23-78.95h499.66a30.618 30.618 0 0 0 28.468-19.2l96.41-238.49c3.737-9.37 2.61-20.121-3.073-28.62zM805.375 484.66H313.805l-36.403-177.05h599.552l-71.578 177.05zM371.251 728.986c-51.456 0-93.286 41.83-93.286 93.286s41.83 93.286 93.286 93.286 93.287-41.83 93.287-93.286c0-51.405-41.882-93.286-93.287-93.286zm0 125.132c-17.561 0-31.846-14.284-31.846-31.846 0-17.562 14.285-31.846 31.846-31.846s31.847 14.284 31.847 31.846c0 17.562-14.336 31.846-31.847 31.846zM738.51 728.986c-51.456 0-93.287 41.83-93.287 93.286s41.83 93.286 93.287 93.286c51.456 0 93.286-41.83 93.286-93.286 0-51.405-41.83-93.286-93.286-93.286zm0 125.132c-17.562 0-31.847-14.284-31.847-31.846 0-17.562 14.285-31.846 31.847-31.846 17.561 0 31.846 14.284 31.846 31.846 0 17.562-14.285 31.846-31.846 31.846z" fill="#535353"/></svg>