<svg class="icon" viewBox="0 0 1024 1024" xmlns="http://www.w3.org/2000/svg" width="200" height="200"><defs/><path d="M963.277 291.072a30.874 30.874 0 0 0-14.336-18.74L711.117 135.169c-4.66-2.714-9.984-4.096-15.36-4.096h-78.183a30.771 30.771 0 0 0-30.72 29.645c-1.484 41.062-34.816 73.267-75.93 73.267s-74.444-32.154-75.929-73.267a30.771 30.771 0 0 0-30.72-29.645h-73.472c-5.376 0-10.7 1.434-15.36 4.096L77.62 272.384c-7.065 4.096-12.237 10.803-14.336 18.74s-.973 16.332 3.175 23.346l112.844 193.332a30.797 30.797 0 0 0 19.764 14.49c8.294 1.894 16.998.204 24.064-4.558l3.379-2.304v345.14c0 14.284 9.83 26.675 23.705 29.9 4.608 1.076 114.893 26.47 260.199 26.47 172.493 0 263.731-25.753 267.52-26.88a30.705 30.705 0 0 0 22.22-29.49V515.43l3.38 2.304c7.014 4.813 15.718 6.452 24.064 4.557a30.797 30.797 0 0 0 19.763-14.49l112.845-193.33a31.078 31.078 0 0 0 3.072-23.399zM810.803 448.41l-24.166-16.436a30.71 30.71 0 0 0-47.975 25.396v378.828c-35.276 7.168-112.128 19.354-228.3 19.354-99.636 0-183.348-12.851-222.464-20.07V457.37a30.71 30.71 0 0 0-47.975-25.396l-24.166 16.436-80.64-138.24 203.93-117.658h38.86c15.258 59.597 68.967 102.86 133.069 102.86s117.811-43.314 133.069-102.86h43.469l203.93 117.658-80.64 138.24z" fill="#535353"/><path d="M354.765 489.42c-16.947 0-30.72 13.774-30.72 30.72v217.191c0 16.947 13.773 30.72 30.72 30.72s30.72-13.773 30.72-30.72v-217.19c0-16.947-13.773-30.72-30.72-30.72z" fill="#535353"/></svg>