<svg class="icon" viewBox="0 0 1024 1024" xmlns="http://www.w3.org/2000/svg" width="200" height="200"><defs/><path d="M502.682 944.589c-238.9 0-433.306-194.355-433.306-433.306S263.731 77.978 502.682 77.978s433.305 194.355 433.305 433.305S741.581 944.59 502.682 944.59zm0-805.12c-205.056 0-371.866 166.81-371.866 371.865S297.626 883.2 502.682 883.2s371.865-166.81 371.865-371.866S707.737 139.47 502.682 139.47z" fill="#535353"/><path d="M675.277 460.34h-345.19c-11.879 0-22.733-6.862-27.802-17.614-5.069-10.752-3.482-23.45 4.045-32.665l90.88-110.387a30.771 30.771 0 0 1 43.264-4.199 30.771 30.771 0 0 1 4.198 43.264l-49.51 60.109h280.115c16.947 0 30.72 13.773 30.72 30.72s-13.773 30.771-30.72 30.771zm-90.931 288.972c-6.861 0-13.773-2.304-19.508-7.014a30.771 30.771 0 0 1-4.198-43.264l49.51-60.16H330.086c-16.947 0-30.72-13.773-30.72-30.72s13.773-30.72 30.72-30.72h345.19c11.88 0 22.734 6.86 27.802 17.612 5.07 10.752 3.482 23.45-4.044 32.666l-90.88 110.387a30.787 30.787 0 0 1-23.808 11.213z" fill="#535353"/></svg>