<svg class="icon" viewBox="0 0 1024 1024" xmlns="http://www.w3.org/2000/svg" width="200" height="200"><defs/><path d="M764.57 904.806H264.55c-50.534 0-91.596-41.113-91.596-91.596V643.43c0-16.947 13.772-30.72 30.72-30.72s30.72 13.773 30.72 30.72v169.78c0 16.64 13.516 30.156 30.156 30.156h500.02c16.64 0 30.156-13.516 30.156-30.156V643.43c0-16.947 13.773-30.72 30.72-30.72s30.72 13.773 30.72 30.72v169.78c0 50.483-41.113 91.596-91.596 91.596zm22.835-313.702c-53.76 0-103.015-24.627-135.22-64.87a172.928 172.928 0 0 1-135.219 64.87c-53.76 0-103.014-24.627-135.219-64.87a172.928 172.928 0 0 1-135.219 64.87c-95.54 0-173.26-77.722-173.26-173.26 0-.666 0-1.28.05-1.946.154-2.253 3.738-55.04 27.7-100.045 24.217-45.415 64.102-115.354 85.708-153.037 15.156-26.42 43.52-42.803 73.933-42.803h498.995c30.618 0 59.034 16.537 74.19 43.213l92.876 163.737c4.352 7.015 27.034 45.773 29.133 91.955 2.048 45.364-13.875 88.116-44.749 120.423-32.051 33.331-75.98 51.763-123.7 51.763zm-135.22-158.976c13.21 0 24.986 8.448 29.133 21.043a111.606 111.606 0 0 0 106.087 76.493c30.822 0 58.931-11.674 79.206-32.87 19.2-20.07 29.03-46.797 27.802-75.213-1.434-32.307-19.866-62.208-20.07-62.515-.257-.41-.513-.87-.769-1.332l-93.184-164.3a23.987 23.987 0 0 0-20.736-12.084H260.608c-8.5 0-16.435 4.557-20.685 11.93-21.453 37.376-60.979 106.7-84.787 151.347-16.18 30.31-20.02 68.199-20.531 74.189.614 61.133 50.534 110.694 111.82 110.694 48.231 0 90.88-30.72 106.087-76.492 4.198-12.544 15.923-21.044 29.133-21.044s24.985 8.448 29.133 21.044a111.606 111.606 0 0 0 106.086 76.492c48.23 0 90.88-30.72 106.086-76.492a30.966 30.966 0 0 1 29.236-20.89z" fill="#535353"/><path d="M754.995 365.517H274.074c-16.948 0-30.72-13.773-30.72-30.72s13.772-30.72 30.72-30.72h480.921c16.947 0 30.72 13.773 30.72 30.72s-13.721 30.72-30.72 30.72z" fill="#535353"/></svg>