<svg class="icon" viewBox="0 0 1024 1024" xmlns="http://www.w3.org/2000/svg" width="200" height="200"><defs/><path d="M515.533 423.526c53.504 0 97.075-43.52 97.075-97.075s-43.52-97.075-97.075-97.075-97.075 43.52-97.075 97.075 43.52 97.075 97.075 97.075zm0-132.71c19.66 0 35.635 15.974 35.635 35.635s-15.974 35.635-35.635 35.635-35.635-15.974-35.635-35.635 15.974-35.635 35.635-35.635zm97.024 389.94c0-53.505-43.52-97.076-97.075-97.076s-97.076 43.52-97.076 97.075 43.52 97.075 97.076 97.075 97.075-43.52 97.075-97.075zm-132.66 0c0-19.662 15.975-35.636 35.636-35.636s35.635 15.974 35.635 35.635-15.974 35.635-35.635 35.635-35.635-15.974-35.635-35.635zm212.788-80.078c53.504 0 97.075-43.52 97.075-97.075s-43.52-97.075-97.075-97.075-97.075 43.52-97.075 97.075 43.52 97.075 97.075 97.075zm0-132.659c19.66 0 35.635 15.975 35.635 35.635s-15.974 35.636-35.635 35.636-35.635-15.975-35.635-35.636 15.974-35.635 35.635-35.635zM338.33 406.58c-53.504 0-97.076 43.52-97.076 97.075s43.52 97.076 97.076 97.076 97.075-43.52 97.075-97.076-43.52-97.075-97.075-97.075zm0 132.66c-19.661 0-35.636-15.975-35.636-35.636s15.975-35.635 35.636-35.635 35.635 15.974 35.635 35.635-15.975 35.635-35.635 35.635z" fill="#535353"/><path d="M875.52 867.533H731.597C853.146 793.19 934.45 659.25 934.45 506.624c0-233.114-189.645-422.707-422.707-422.707-233.114 0-422.707 189.645-422.707 422.707s189.645 422.707 422.707 422.707c5.018 0 9.984-.205 14.95-.358H875.52c16.947 0 30.72-13.773 30.72-30.72s-13.722-30.72-30.72-30.72zM150.477 506.624c0-199.22 162.048-361.267 361.267-361.267s361.267 162.099 361.267 361.267c0 194.202-154.01 353.024-346.317 360.909h-3.123c-1.075 0-2.099.051-3.123.153-2.918.052-5.837.205-8.755.205-199.168.051-361.216-162.048-361.216-361.267z" fill="#535353"/></svg>