<svg class="icon" viewBox="0 0 1024 1024" xmlns="http://www.w3.org/2000/svg" width="200" height="200"><defs/><path d="M840.346 147.712H193.28c-50.79 0-92.16 41.318-92.16 92.16v427.725c0 50.79 41.37 92.16 92.16 92.16h292.3c0 10.496.154 23.757.41 40.704H378.06c-16.946 0-30.72 13.773-30.72 30.72s13.774 30.72 30.72 30.72h277.454c16.947 0 30.72-13.773 30.72-30.72s-13.773-30.72-30.72-30.72H547.482c-.205-14.848-.308-29.184-.308-40.704h293.172c50.79 0 92.16-41.37 92.16-92.16V239.872c0-50.79-41.37-92.16-92.16-92.16zm-647.066 61.44h647.066c16.947 0 30.72 13.773 30.72 30.72v356.25H162.56v-356.25c0-16.947 13.773-30.72 30.72-30.72zm647.066 489.165H193.28c-16.947 0-30.72-13.773-30.72-30.72v-9.984h708.506v9.984c0 16.947-13.773 30.72-30.72 30.72z" fill="#535353"/></svg>