<svg class="icon" viewBox="0 0 1024 1024" xmlns="http://www.w3.org/2000/svg" width="200" height="200"><defs/><path d="M494.08 936.55c-20.429 0-42.547-2.61-65.792-7.884-71.22-16.23-143.206-55.655-202.7-111.002-131.585-122.47-184.423-362.598-44.954-552.346C322.099 72.858 537.702 96.87 600.422 108.8c195.43 38.605 298.343 204.902 328.346 297.062.205.615.41 1.28.563 1.895 43.315 169.472-45.465 262.553-98.457 288.102-.154.051-.308.154-.461.205-51.815 23.91-137.472 35.533-190.874 25.958-38.041-6.81-43.059-.512-51.405 9.984-2.457 3.072-3.02 16.077 12.442 42.957 42.752 74.547 8.346 116.224-8.96 130.97-22.733 20.173-56.73 30.617-97.536 30.617zm19.968-774.246c-80.384 0-198.502 23.142-283.904 139.366-119.194 162.202-74.65 366.848 37.325 470.99 115.968 107.878 249.446 117.76 283.494 87.193.256-.205.461-.41.717-.615 4.403-3.737 17.818-15.052-4.352-53.708-26.726-46.541-29.184-84.173-7.27-111.77 30.003-37.837 65.843-40.243 110.387-32.256 36.608 6.605 110.029-1.024 153.805-21.043 7.014-3.635 105.881-57.907 65.843-216.525-26.266-79.616-114.688-221.9-281.344-254.874-15.514-2.918-41.984-6.758-74.701-6.758zM817.562 668.16zm0 0z" fill="#535353"/><path d="M342.528 475.802c-48.077 0-87.142-39.117-87.142-87.143s39.116-87.142 87.142-87.142c48.077 0 87.142 39.117 87.142 87.142s-39.065 87.143-87.142 87.143zm0-112.896c-14.182 0-25.702 11.52-25.702 25.702s11.52 25.702 25.702 25.702c14.182 0 25.702-11.52 25.702-25.702s-11.52-25.702-25.702-25.702zm229.99 21.145c-48.076 0-87.142-39.117-87.142-87.142 0-48.077 39.117-87.143 87.142-87.143 48.077 0 87.143 39.117 87.143 87.143 0 48.025-39.117 87.142-87.143 87.142zm0-112.896c-14.182 0-25.702 11.52-25.702 25.703 0 14.182 11.52 25.702 25.702 25.702 14.183 0 25.703-11.52 25.703-25.702 0-14.183-11.52-25.703-25.703-25.703zM738.15 569.19c-48.076 0-87.142-39.116-87.142-87.142 0-48.077 39.117-87.142 87.142-87.142 48.077 0 87.143 39.116 87.143 87.142 0 48.026-39.066 87.142-87.143 87.142zm0-112.896c-14.182 0-25.702 11.52-25.702 25.703 0 14.182 11.52 25.702 25.702 25.702 14.183 0 25.703-11.52 25.703-25.702 0-14.183-11.52-25.703-25.703-25.703zM333.568 715.827c-48.077 0-87.142-39.117-87.142-87.142 0-48.077 39.116-87.143 87.142-87.143 48.077 0 87.142 39.117 87.142 87.143 0 48.025-39.116 87.142-87.142 87.142zm0-112.896c-14.182 0-25.702 11.52-25.702 25.703 0 14.182 11.52 25.702 25.702 25.702 14.182 0 25.702-11.52 25.702-25.702a25.754 25.754 0 0 0-25.702-25.703z" fill="#535353"/></svg>