<svg class="icon" viewBox="0 0 1024 1024" xmlns="http://www.w3.org/2000/svg" width="200" height="200"><defs/><path d="M748.954 127.078c-109.722 0-198.964 89.242-198.964 198.964 0 58.316 25.19 110.796 65.28 147.25L505.6 608l-67.584-108.646c30.566-19.456 52.429-49.204 61.85-84.43 9.984-37.324 4.864-76.287-14.439-109.72l-92.211-159.591a60.355 60.355 0 0 0-36.864-28.314c-15.667-4.198-32.051-2.048-46.08 6.042L117.76 234.547c-28.98 16.743-38.963 53.965-22.22 82.944l92.16 159.59c26.777 46.337 75.468 72.295 125.49 72.295 24.372 0 49.05-6.195 71.68-19.149l79.77 128.154-176.947 217.293c-10.701 13.158-8.755 32.512 4.403 43.212 5.683 4.66 12.544 6.912 19.354 6.912 8.908 0 17.766-3.84 23.859-11.315l163.635-200.96L624.691 915.61a30.71 30.71 0 0 0 26.112 14.49c5.53 0 11.162-1.486 16.18-4.66a30.71 30.71 0 0 0 9.83-42.291L539.904 663.142 666.88 507.187a197.422 197.422 0 0 0 82.125 17.818c109.721 0 198.963-89.242 198.963-198.963-.051-109.722-89.293-198.964-199.014-198.964zm-508.11 319.284l-91.75-158.976 191.284-110.439 91.75 158.976c11.11 19.251 14.08 41.677 8.294 63.13-5.734 21.453-19.507 39.424-38.758 50.534l-47.206 27.29c-39.68 22.835-90.676 9.165-113.613-30.515zm508.11 17.203c-75.828 0-137.524-61.696-137.524-137.523 0-75.828 61.696-137.524 137.524-137.524 75.827 0 137.523 61.696 137.523 137.524 0 75.827-61.696 137.523-137.523 137.523z" fill="#535353"/><path d="M748.954 374.58c-26.727 0-48.487-21.76-48.487-48.487 0-16.947-13.773-30.72-30.72-30.72s-30.72 13.773-30.72 30.72c0 60.62 49.306 109.926 109.927 109.926 16.947 0 30.72-13.773 30.72-30.72s-13.773-30.72-30.72-30.72zM271.41 317.9a30.71 30.71 0 0 0-42.24-10.188 30.71 30.71 0 0 0-10.189 42.24l53.453 87.45a30.679 30.679 0 0 0 26.266 14.694 30.71 30.71 0 0 0 26.163-46.746l-53.453-87.45zm135.322 40.858l-53.453-87.45a30.71 30.71 0 0 0-42.24-10.188 30.71 30.71 0 0 0-10.189 42.24l53.453 87.45a30.679 30.679 0 0 0 26.266 14.694 30.71 30.71 0 0 0 26.163-46.746z" fill="#535353"/></svg>