<svg class="icon" viewBox="0 0 1024 1024" xmlns="http://www.w3.org/2000/svg" width="200" height="200"><defs/><path d="M354.048 364.595a39.066 39.066 0 1 0 78.131 0 39.066 39.066 0 1 0-78.131 0zM595.9169999999999 365.466a39.066 39.066 0 1 0 78.131 0 39.066 39.066 0 1 0-78.131 0zM406.118 604.723a30.771 30.771 0 0 0-26.316 34.56 30.705 30.705 0 0 0 30.412 26.573c1.383 0 2.765-.102 4.199-.307 48.998-6.656 80.179-26.829 99.584-50.74 28.774 35.073 71.168 49.255 99.072 51.61.87.051 1.74.103 2.611.103 15.718 0 28.98-11.981 30.464-27.904 1.536-16.794-10.854-31.744-27.648-33.383-12.34-1.229-72.038-10.905-74.086-81.766a50.094 50.094 0 0 0 21.145-40.909c0-27.75-22.528-50.278-50.278-50.278s-50.279 22.528-50.279 50.278c0 14.797 6.452 28.058 16.59 37.274a29.778 29.778 0 0 0 .204 5.632c.922 7.014 6.707 68.044-75.674 79.257z" fill="#535353"/><path d="M965.069 510.26C903.73 266.905 780.595 164.453 684.442 121.394a283.064 283.064 0 0 0-149.914-42.803h-40.806c-51.15 0-99.124 13.62-140.698 37.325-84.992 34.406-227.072 130.304-293.58 394.342-1.895 7.578-22.682 96.615 31.743 143.002 18.125 15.462 41.267 23.142 69.274 23.142 24.73 0 53.35-6.093 85.555-18.176a287.065 287.065 0 0 0 54.22 68.455l-31.948 99.686c-6.451 20.07-2.867 42.24 9.574 59.29s32.41 27.238 53.504 27.238h354.1c21.094 0 41.113-10.189 53.504-27.187s16.025-39.22 9.574-59.29l-29.491-91.853a287.35 287.35 0 0 0 62.413-75.11c30.976 11.315 58.521 17.05 82.534 17.05 28.109 0 51.354-7.783 69.53-23.348 54.17-46.54 33.433-135.372 31.539-142.899zm-833.997 96.204c-20.838-17.766-16.128-66.048-12.186-80.691l.154-.512c24.064-95.59 58.42-166.349 95.642-218.829a285.931 285.931 0 0 0-5.735 56.934V517.94a284.07 284.07 0 0 0 12.647 83.917c-43.11 15.667-75.418 17.51-90.522 4.608zm160.717 6.86a29.554 29.554 0 0 0-2.15-7.065 225.09 225.09 0 0 1-19.303-91.545V366.592c0-82.586 45.005-158.72 117.504-198.605 2.202-1.177 4.147-2.662 5.888-4.25a222.157 222.157 0 0 1 99.942-23.705h40.807c38.81 0 75.264 9.933 107.11 27.443 1.741 1.69 3.584 3.277 5.735 4.557 69.17 41.37 110.49 114.125 110.49 194.56v148.122c0 32.204-6.708 63.436-19.866 92.723-1.024 2.304-1.741 4.761-2.202 7.219-36.096 74.854-112.742 126.618-201.267 126.618H493.67c-89.036 0-166.041-52.43-201.881-127.95zm398.285 231.783c.512 1.536.256 2.97-.717 4.301s-2.253 1.997-3.891 1.997h-354.1c-1.638 0-2.918-.666-3.89-1.997s-1.178-2.765-.718-4.3l25.703-80.078a282.85 282.85 0 0 0 141.21 37.632h40.806c47.462 0 92.211-11.724 131.584-32.358l24.013 74.803zm203.468-238.694c-14.694 12.595-45.824 11.213-87.244-3.38a283.622 283.622 0 0 0 13.004-85.145V363.366c0-17.459-1.638-34.508-4.71-51.148 35.686 52.224 67.84 121.395 90.931 213.043l.154.512c3.891 14.592 8.601 62.873-12.135 80.64z" fill="#535353"/></svg>