<svg class="icon" viewBox="0 0 1024 1024" xmlns="http://www.w3.org/2000/svg" width="200" height="200"><defs/><path d="M513.28 929.382c-231.834 0-420.403-188.62-420.403-420.403S281.447 88.576 513.28 88.576s420.403 188.62 420.403 420.403-188.57 420.403-420.403 420.403zm0-779.366c-197.94 0-358.963 161.024-358.963 358.963S315.34 867.942 513.28 867.942 872.243 706.918 872.243 508.98 711.22 150.016 513.28 150.016z" fill="#535353"/><path d="M450.202 665.242c-12.647 0-25.242-3.328-36.762-9.984-22.989-13.261-36.762-37.07-36.762-63.642V426.342c0-26.572 13.722-50.38 36.762-63.641s50.483-13.261 73.523 0l143.104 82.637c22.989 13.26 36.762 37.068 36.762 63.641s-13.722 50.381-36.762 63.642l-143.155 82.637a73.062 73.062 0 0 1-36.71 9.984zm0-251.034c-2.612 0-4.762.922-6.042 1.69-2.253 1.28-6.042 4.403-6.042 10.444v165.274c0 6.042 3.79 9.165 6.042 10.445 2.253 1.28 6.81 3.02 12.083 0l143.104-82.637c5.223-3.02 6.042-7.834 6.042-10.445s-.768-7.424-6.042-10.445l-143.155-82.636c-2.15-1.23-4.147-1.69-5.99-1.69z" fill="#535353"/></svg>