<svg class="icon" viewBox="0 0 1024 1024" xmlns="http://www.w3.org/2000/svg" width="200" height="200"><defs/><path d="M832.717 496.282c-16.947 0-30.72 13.772-30.72 30.72V808.14c0 22.067-17.971 40.038-40.039 40.038h-538.06c-22.068 0-40.039-17.971-40.039-40.038V230.963c0-22.067 17.971-40.038 40.039-40.038h325.836c16.948 0 30.72-13.773 30.72-30.72s-13.772-30.72-30.72-30.72H223.898c-55.962 0-101.479 45.517-101.479 101.478v577.178c0 55.961 45.517 101.478 101.479 101.478h538.06c55.962 0 101.479-45.517 101.479-101.478V527c0-16.947-13.773-30.72-30.72-30.72z" fill="#535353"/><path d="M909.26 210.586l-73.727-73.728c-25.549-25.55-67.072-25.55-92.57 0L429.62 450.15a30.865 30.865 0 0 0-8.038 14.08l-40.55 157.85a30.674 30.674 0 0 0 29.747 38.349c2.15 0 4.3-.205 6.4-.666l163.43-34.97c5.786-1.228 11.11-4.147 15.309-8.345L909.21 303.155c25.548-25.497 25.548-67.02.05-92.57zM558.9 566.63l-106.036 22.682 26.112-101.632 221.952-221.952 81.766 77.158L558.9 566.63zm306.892-306.892l-39.68 39.68-81.766-77.159 41.984-41.984a4.096 4.096 0 0 1 5.734 0l73.728 73.728c1.587 1.639 1.587 4.199 0 5.735z" fill="#535353"/></svg>