<svg class="icon" viewBox="0 0 1024 1024" xmlns="http://www.w3.org/2000/svg" width="200" height="200"><defs/><path d="M905.062 557.773c-6.092-50.842-24.78-148.736-81.561-233.216-65.383-97.229-160.359-149.863-282.573-156.826v-49.357c0-16.947-13.773-30.72-30.72-30.72s-30.72 13.773-30.72 30.72v49.562c-310.22 19.046-353.434 304.947-359.22 394.7-1.177 18.023 5.274 35.943 17.665 49.102 12.339 13.158 29.747 20.684 47.82 20.684h.154l295.322-.614v156.314c0 50.636-41.216 91.801-91.802 91.801s-91.801-41.216-91.801-91.801v-10.394c0-16.947-13.773-30.72-30.72-30.72s-30.72 13.773-30.72 30.72v10.394c0 84.53 68.761 153.241 153.241 153.241S542.67 872.602 542.67 788.122V631.706l297.42-.615c18.74-.051 36.609-8.09 48.999-22.118 12.39-14.08 18.227-32.717 15.974-51.2zm-61.952 10.393a4.022 4.022 0 0 1-3.123 1.434l-654.182 1.382c-1.178 0-2.202-.46-3.021-1.28a4.04 4.04 0 0 1-1.126-3.072c6.502-101.734 51.916-338.278 331.059-338.278 262.656 0 319.232 235.469 331.366 336.742a4.045 4.045 0 0 1-.973 3.072z" fill="#535353"/><path d="M578.202 324.608c-16.487-3.789-32.87 6.4-36.762 22.886s6.298 32.973 22.733 36.967c3.737.921 91.187 23.04 110.745 111.565 3.175 14.336 15.872 24.115 29.952 24.115a30.653 30.653 0 0 0 30.004-37.325c-27.956-127.027-151.399-156.98-156.672-158.208z" fill="#535353"/></svg>