<svg class="icon" viewBox="0 0 1024 1024" xmlns="http://www.w3.org/2000/svg" width="200" height="200"><defs/><path d="M762.829 244.787h-5.376v-41.574c0-58.88-47.923-106.803-106.803-106.803H372.89c-58.88 0-106.804 47.923-106.804 106.803v41.574h-4.044c-89.55 0-162.407 72.858-162.407 162.407V760.78c0 89.549 72.858 162.406 162.407 162.406h500.787c89.549 0 162.406-72.857 162.406-162.406V407.194c0-89.55-72.857-162.407-162.406-162.407zm-435.303-41.574c0-25.037 20.378-45.363 45.364-45.363h277.76c25.036 0 45.363 20.377 45.363 45.363v41.574H327.526v-41.574zm-65.484 103.014h500.787c55.705 0 100.966 45.312 100.966 100.967v102.963H696.576V471.45c0-16.948-13.773-30.72-30.72-30.72s-30.72 13.772-30.72 30.72v38.707H377.907V471.45c0-16.948-13.773-30.72-30.72-30.72s-30.72 13.772-30.72 30.72v38.707H161.075V407.194c0-55.655 45.261-100.967 100.967-100.967zm500.787 555.571H262.042c-55.706 0-100.967-45.312-100.967-100.966V571.648h155.443v69.171c0 16.947 13.773 30.72 30.72 30.72s30.72-13.773 30.72-30.72v-69.171h257.23v69.171c0 16.947 13.772 30.72 30.72 30.72s30.72-13.773 30.72-30.72v-69.171h167.218v189.184c-.05 55.654-45.312 100.966-101.017 100.966z" fill="#535353"/></svg>