<svg class="icon" viewBox="0 0 1024 1024" xmlns="http://www.w3.org/2000/svg" width="200" height="200"><defs/><path d="M906.598 263.168l-57.548-93.85c-22.119-36.044-62.106-58.47-104.397-58.47h-.154l-463.872.614c-42.445.052-82.534 22.63-104.55 58.983l-56.474 92.979a122.42 122.42 0 0 0-17.766 63.54V788.48c0 67.533 54.937 122.47 122.47 122.47H802.15c67.533 0 122.47-54.937 122.47-122.47V327.168a121.77 121.77 0 0 0-18.022-64zm-678.041-60.877c10.957-18.125 30.925-29.337 52.121-29.389l463.872-.614h.103c21.094 0 41.011 11.162 52.019 29.133l45.21 73.677h-657.51l44.185-72.807zm573.645 647.27H224.358c-33.69 0-61.03-27.391-61.03-61.03V336.538h699.904V788.48c0 33.69-27.392 61.082-61.03 61.082z" fill="#535353"/><path d="M646.349 599.86l-103.066 88.114.512-264.294a30.679 30.679 0 0 0-30.669-30.771h-.05c-16.948 0-30.67 13.721-30.72 30.669l-.513 259.123-91.085-78.234c-12.85-11.059-32.256-9.574-43.315 3.277-11.059 12.851-9.574 32.256 3.277 43.315l144.742 124.365c5.735 4.966 12.903 7.424 20.02 7.424 7.116 0 14.233-2.458 19.968-7.373l150.784-128.921c12.902-11.008 14.387-30.413 3.379-43.316a30.623 30.623 0 0 0-43.264-3.379z" fill="#535353"/></svg>