<svg class="icon" viewBox="0 0 1024 1024" xmlns="http://www.w3.org/2000/svg" width="200" height="200"><defs/><path d="M820.582 251.085H711.63v-68.762c0-30.413-24.73-55.142-55.143-55.142h-292.25c-30.412 0-55.142 24.73-55.142 55.142v68.762H201.267c-62.464 0-113.254 50.79-113.254 113.254v414.874c0 62.464 50.79 113.254 113.254 113.254h619.315c62.464 0 113.255-50.79 113.255-113.254V364.39c0-62.464-50.79-113.305-113.255-113.305zM370.534 188.62H650.19v60.774H370.534v-60.774zm501.863 590.643c0 28.57-23.245 51.814-51.815 51.814H201.267c-28.57 0-51.814-23.244-51.814-51.814V364.39c0-28.57 23.245-51.814 51.814-51.814h619.315c28.57 0 51.815 23.245 51.815 51.814v414.874z" fill="#535353"/><path d="M642.611 543.846H529.46V430.694c0-16.947-13.773-30.72-30.72-30.72s-30.72 13.773-30.72 30.72v113.152H354.816c-16.947 0-30.72 13.773-30.72 30.72s13.773 30.72 30.72 30.72h113.152v113.152c0 16.948 13.773 30.72 30.72 30.72s30.72-13.772 30.72-30.72V605.286H642.56c16.947 0 30.72-13.772 30.72-30.72s-13.722-30.72-30.669-30.72z" fill="#535353"/></svg>