<svg class="icon" viewBox="0 0 1024 1024" xmlns="http://www.w3.org/2000/svg" width="200" height="200"><defs/><path d="M938.65 433.306a30.822 30.822 0 0 0-26.88-5.07c-3.584 1.025-7.117 1.895-10.65 2.817V292.045a30.797 30.797 0 0 0-12.186-24.525 30.822 30.822 0 0 0-26.88-5.069C730.42 299.674 645.94 236.34 590.08 194.458c-4.352-3.226-8.448-6.298-12.34-9.165a30.71 30.71 0 0 0-40.242 3.43C416.717 313.651 354.816 330.445 261.12 355.84c-21.146 5.734-43.008 11.674-67.43 19.354-43.828 13.772-75.572 39.321-94.31 75.98-35.892 70.298-8.193 155.29-7.015 158.874 1.638 4.864 4.403 9.062 7.936 12.442-1.28 2.252-2.56 4.505-3.738 6.86-38.093 74.548-8.704 164.916-7.424 168.704a30.72 30.72 0 0 0 29.133 20.992h769.69c34.713 0 62.924-28.21 62.924-62.924V457.83a30.925 30.925 0 0 0-12.236-24.524zm-784.487 45.568c11.11-21.607 30.055-36.352 57.856-45.056 23.296-7.322 44.544-13.056 65.127-18.637 91.392-24.781 164.505-44.595 285.49-164.455 54.222 40.244 145.665 101.94 277.044 79.719v109.67c-92.518 3.84-159.283-39.475-206.848-74.496-.051-.051-.102-.102-.154-.102-1.587-1.178-3.225-2.355-4.761-3.533-3.175-2.355-6.298-4.71-9.267-6.963-4.608-3.43-8.96-6.707-13.108-9.78a30.72 30.72 0 0 0-40.294 3.431c-129.792 134.349-199.885 153.395-296.96 179.763-22.63 6.144-46.029 12.493-72.14 20.685a173.743 173.743 0 0 0-11.009 3.84c-.768.256-1.485.563-2.253.87-11.417 4.455-22.016 9.728-31.641 15.821h-5.581c-4.198-22.937-7.168-60.365 8.5-90.777zM151.347 657.1c6.963-13.568 16.845-24.576 29.594-33.331 1.638-1.127 3.277-2.253 5.017-3.328 1.024-.615 2.15-1.23 3.226-1.844 1.792-1.024 3.635-2.048 5.53-2.97 1.382-.665 2.816-1.28 4.198-1.894 1.74-.768 3.43-1.587 5.274-2.304a144.135 144.135 0 0 1 10.342-3.686c24.986-7.834 47.77-14.029 69.837-20.02 24.473-6.655 47.718-12.953 70.81-20.684a605.059 605.059 0 0 0 19.711-7.014 494.847 494.847 0 0 0 20.02-8.039c3.942-1.69 7.884-3.43 11.878-5.273l22.323 29.081a30.633 30.633 0 0 0 24.371 12.032c6.503 0 13.108-2.048 18.688-6.349a30.69 30.69 0 0 0 5.684-43.059l-16.436-21.453c11.725-7.372 23.757-15.718 36.25-25.036l27.494 31.283a30.648 30.648 0 0 0 23.092 10.445c7.219 0 14.438-2.51 20.275-7.63a30.771 30.771 0 0 0 2.816-43.366l-26.01-29.593c14.336-12.698 29.338-26.727 45.056-42.394 2.458 1.843 5.018 3.687 7.578 5.632 1.075.768 2.15 1.536 3.225 2.355l1.127.82c50.483 36.659 124.313 82.432 225.485 82.432 2.816 0 5.734-.052 8.601-.154.666 0 1.331 0 1.997-.051 2.15-.051 4.352-.205 6.554-.307 14.284-.717 29.081-2.253 44.39-4.967v53.658c-22.374.102-53.35 3.225-87.552 15.257-57.344 20.173-135.066 70.042-187.238 192.41H142.336c-4.66-24.832-8.448-66.714 9.011-100.66zM887.91 757.658H682.24c65.178-129.741 162.355-146.33 207.155-146.432v144.947c0 .819-.665 1.485-1.485 1.485z" fill="#535353"/></svg>