<svg class="icon" viewBox="0 0 1024 1024" xmlns="http://www.w3.org/2000/svg" width="200" height="200"><defs/><path d="M699.853 209.715H640.46v-80.179c0-39.424-32.051-71.475-71.475-71.475H423.014c-39.424 0-71.475 32.051-71.475 71.475v80.18h-58.265c-71.732 0-130.048 58.367-130.048 130.047v460.595c0 71.732 58.368 130.048 130.048 130.048h64.819v8.5c0 16.947 13.773 30.72 30.72 30.72s30.72-13.773 30.72-30.72v-8.5h152.934v8.5c0 16.947 13.773 30.72 30.72 30.72s30.72-13.773 30.72-30.72v-8.5h65.895c71.73 0 130.048-58.368 130.048-130.048V339.763c.05-71.731-58.266-130.048-129.997-130.048zM413.03 129.536c0-5.53 4.506-10.035 10.036-10.035h145.97c5.53 0 10.036 4.505 10.036 10.035v80.18H413.03v-80.18zm355.43 670.822c0 37.837-30.77 68.608-68.607 68.608H293.325c-37.837 0-68.608-30.77-68.608-68.608V339.763c0-37.837 30.771-68.608 68.608-68.608h406.579c37.837 0 68.608 30.771 68.608 68.608v460.595z" fill="#535353"/><path d="M382.31 389.99c-16.947 0-30.72 13.773-30.72 30.72V725.71c0 16.947 13.773 30.72 30.72 30.72s30.72-13.773 30.72-30.72V420.71c0-16.947-13.772-30.72-30.72-30.72zm220.928 0c-16.947 0-30.72 13.773-30.72 30.72V725.71c0 16.947 13.773 30.72 30.72 30.72s30.72-13.773 30.72-30.72V420.71c0-16.947-13.772-30.72-30.72-30.72z" fill="#535353"/></svg>