<svg class="icon" viewBox="0 0 1024 1024" xmlns="http://www.w3.org/2000/svg" width="200" height="200"><defs/><path d="M513.28 924.16c-60.16 0-112.435-35.942-135.322-88.474A147.558 147.558 0 0 1 219.7 802.56a147.369 147.369 0 0 1-33.126-158.26c-52.531-22.886-88.474-75.212-88.474-135.32s35.943-112.436 88.474-135.322a147.558 147.558 0 0 1 33.126-158.26 147.369 147.369 0 0 1 158.26-33.126c22.886-52.531 75.212-88.474 135.321-88.474s112.435 35.943 135.322 88.474a147.558 147.558 0 0 1 158.259 33.126 147.369 147.369 0 0 1 33.126 158.26c52.531 22.886 88.474 75.212 88.474 135.321s-35.943 112.435-88.474 135.322a147.558 147.558 0 0 1-33.126 158.259 147.354 147.354 0 0 1-158.26 33.126A147.343 147.343 0 0 1 513.28 924.16zM397.107 758.784c3.994 0 7.936.768 11.725 2.355a30.771 30.771 0 0 1 18.79 25.037c4.813 43.674 41.626 76.595 85.658 76.595s80.845-32.921 85.658-76.595a30.771 30.771 0 0 1 18.79-25.037 30.684 30.684 0 0 1 30.976 4.403c34.304 27.495 83.61 24.73 114.74-6.4 31.129-31.13 33.894-80.435 6.4-114.739a30.7 30.7 0 0 1-4.404-30.976 30.771 30.771 0 0 1 25.037-18.79c43.673-4.813 76.595-41.626 76.595-85.658s-32.922-80.845-76.595-85.657a30.771 30.771 0 0 1-25.037-18.79c-4.3-10.343-2.611-22.222 4.403-30.977 27.495-34.304 24.73-83.61-6.4-114.739a86.042 86.042 0 0 0-114.739-6.4 30.684 30.684 0 0 1-30.976 4.403 30.771 30.771 0 0 1-18.79-25.037c-4.813-43.673-41.626-76.595-85.658-76.595s-80.845 32.922-85.658 76.595a30.771 30.771 0 0 1-18.79 25.037c-10.342 4.301-22.22 2.611-30.976-4.403-34.253-27.494-83.61-24.73-114.74 6.4-31.129 31.13-33.894 80.435-6.4 114.74 7.015 8.754 8.705 20.633 4.404 30.975a30.771 30.771 0 0 1-25.037 18.79c-43.673 4.813-76.595 41.626-76.595 85.658s32.922 80.845 76.595 85.658a30.771 30.771 0 0 1 25.037 18.79c4.3 10.343 2.611 22.221-4.403 30.976-27.495 34.304-24.73 83.61 6.4 114.74 31.13 31.129 80.435 33.894 114.739 6.4a30.75 30.75 0 0 1 19.251-6.759z" fill="#535353"/><path d="M513.28 645.069c-73.574 0-133.427-59.853-133.427-133.427s59.853-133.428 133.427-133.428 133.427 59.853 133.427 133.428-59.853 133.427-133.427 133.427zm0-205.415c-39.68 0-71.987 32.308-71.987 71.988s32.307 71.987 71.987 71.987c39.68 0 71.987-32.307 71.987-71.987s-32.307-71.988-71.987-71.988z" fill="#535353"/></svg>