<svg class="icon" viewBox="0 0 1024 1024" xmlns="http://www.w3.org/2000/svg" width="200" height="200"><defs/><path d="M780.954 157.696h-79.872v-45.005c0-16.947-13.773-30.72-30.72-30.72s-30.72 13.773-30.72 30.72v45.005H388.71v-45.005c0-16.947-13.772-30.72-30.72-30.72s-30.72 13.773-30.72 30.72v45.005h-76.748c-89.19 0-161.69 72.55-161.69 161.69v441.958c0 89.19 72.55 161.69 161.69 161.69h530.432c89.19 0 161.69-72.55 161.69-161.69V319.386c0-89.14-72.551-161.69-161.69-161.69zm-530.432 61.44h76.748v53.862c0 16.948 13.773 30.72 30.72 30.72s30.72-13.772 30.72-30.72v-53.862h250.932v53.862c0 16.948 13.772 30.72 30.72 30.72s30.72-13.772 30.72-30.72v-53.862h79.872c55.296 0 100.25 45.005 100.25 100.25v71.219H150.22v-71.22c0-55.295 45.005-100.249 100.3-100.249zm530.432 642.509H250.522c-55.296 0-100.25-45.005-100.25-100.25v-309.35h730.982v309.299c-.05 55.296-45.056 100.3-100.3 100.3z" fill="#ffda44"/><path d="M689.1 548.506H338.33c-16.948 0-30.72 13.772-30.72 30.72s13.772 30.72 30.72 30.72h350.822c16.947 0 30.72-13.773 30.72-30.72s-13.773-30.72-30.771-30.72zM527.054 706.253H338.33c-16.948 0-30.72 13.773-30.72 30.72s13.772 30.72 30.72 30.72h188.723c16.947 0 30.72-13.773 30.72-30.72s-13.773-30.72-30.72-30.72z" fill="#ffda44"/></svg>