<svg class="icon" viewBox="0 0 1024 1024" xmlns="http://www.w3.org/2000/svg" width="200" height="200"><defs/><path d="M779.469 199.373H706.56v-32.666c0-13.517-10.752-24.371-24.371-24.371-13.517 0-24.371 10.752-24.371 24.371v32.666H390.144v-32.666c0-13.517-10.752-24.371-24.371-24.371s-24.371 10.752-24.371 24.371v32.666h-97.383c-39.936 0-73.011 32.665-73.011 73.011v535.347c0 39.936 32.666 73.011 73.011 73.011h535.347c39.936 0 73.012-32.665 73.012-73.01V272.383c.102-39.936-32.564-73.011-72.91-73.011zM803.84 807.73c0 13.21-11.162 24.371-24.371 24.371H244.224c-13.21 0-24.371-11.161-24.371-24.37V272.383c0-13.21 10.752-24.371 24.371-24.371h97.382v6.758c0 13.517 10.752 24.371 24.372 24.371 13.516 0 24.37-10.752 24.37-24.37v-6.76h267.674v6.76c0 13.516 10.752 24.37 24.372 24.37 13.516 0 24.37-10.752 24.37-24.37v-6.76h73.012c13.21 0 24.371 11.162 24.371 24.372v535.347h-.307z" fill="#ffda44"/><path d="M779.469 883.302H244.224c-41.677 0-75.571-33.894-75.571-75.57V272.383c0-41.677 33.894-75.571 75.571-75.571h94.72v-30.106c0-15.053 11.776-26.931 26.931-26.931s26.931 11.776 26.931 26.931v30.106H655.36v-30.106c0-15.053 11.776-26.931 26.931-26.931s26.931 11.776 26.931 26.931v30.106h70.452c41.676 0 75.57 33.894 75.57 75.571v535.347c-.204 41.677-34.098 75.571-75.775 75.571zm-535.245-681.37c-38.81 0-70.451 31.642-70.451 70.452v535.347c0 38.81 31.641 70.451 70.451 70.451h535.347c38.81 0 70.451-31.641 70.451-70.45V272.383c0-38.81-31.641-70.451-70.45-70.451H704v-35.226c0-12.185-9.523-21.811-21.811-21.811s-21.811 9.523-21.811 21.811v35.226H387.584v-35.226c0-12.185-9.523-21.811-21.811-21.811s-21.811 9.523-21.811 21.811v35.226h-99.738zM779.469 834.56H244.224c-14.54 0-26.931-12.288-26.931-26.931V272.384c0-14.848 12.083-26.931 26.931-26.931h99.84v9.318c0 12.186 9.523 21.811 21.811 21.811s21.811-9.523 21.811-21.81v-9.32H660.48v9.32c0 12.185 9.523 21.81 21.811 21.81s21.811-9.523 21.811-21.81v-9.32h75.572c14.54 0 26.93 12.289 26.93 26.932v535.347c-.204 14.541-12.492 26.829-27.135 26.829zM244.224 250.573c-11.98 0-21.811 9.728-21.811 21.811v535.347c0 11.776 9.933 21.811 21.811 21.811h535.347c11.776 0 21.811-9.932 21.811-21.81V272.383c0-11.776-9.932-21.811-21.81-21.811H709.12v4.198c0 15.053-11.776 26.931-26.931 26.931s-26.931-11.776-26.931-26.93v-4.2H392.704v4.2c0 15.052-11.776 26.93-26.931 26.93s-26.829-11.776-26.829-26.828v-4.199h-94.72z" fill="#ffda44"/><path d="M706.56 437.965H317.542c-13.516 0-24.37 10.752-24.37 24.371 0 13.517 10.751 24.371 24.37 24.371H706.56c13.517 0 24.371-10.752 24.371-24.371s-10.854-24.371-24.371-24.371zm-194.662 145.92H317.542c-13.516 0-24.37 10.752-24.37 24.371 0 13.517 10.751 24.371 24.37 24.371h194.663c13.517 0 24.371-10.752 24.371-24.371-.41-13.517-11.162-24.371-24.678-24.371z" fill="#ffda44"/><path d="M512.205 635.187H317.542c-15.052 0-26.93-11.776-26.93-26.931 0-15.053 11.775-26.931 26.93-26.931h194.253c14.848 0 26.829 11.776 27.341 26.829 0 15.155-11.776 27.033-26.931 27.033zm-194.663-48.742c-12.185 0-21.81 9.523-21.81 21.811 0 12.186 9.522 21.811 21.81 21.811h194.663c12.185 0 21.811-9.523 21.811-21.811-.41-12.186-10.138-21.811-22.22-21.811H317.541zm389.018-97.28H317.542c-15.052 0-26.93-11.776-26.93-26.931 0-15.053 11.775-26.932 26.93-26.932H706.56c15.053 0 26.931 11.776 26.931 26.932-.102 15.052-11.878 26.93-26.931 26.93zm-389.018-48.64c-12.185 0-21.81 9.523-21.81 21.811 0 12.186 9.522 21.811 21.81 21.811H706.56c12.186 0 21.811-9.523 21.811-21.811 0-12.186-9.523-21.811-21.811-21.811H317.542z" fill="#ffda44"/></svg>